<svg xmlns="http://www.w3.org/2000/svg" viewBox="0 0 24 24">
  <defs>
    <style>
      .c {
        fill: #183A28
      }
    </style>
  </defs>
  <rect x="1" y="1" width="22" height="22" rx="7.656" style="fill:#549B75" />
  <path d="M23 13.938a14.69 14.69 0 0 1-12.406 6.531c-5.542 0-6.563-1-9.142-2.529A7.66 7.66 0 0 0 8.656 23h6.688A7.656 7.656 0 0 0 23 15.344z" style="fill:#458163" />
  <path class="c" d="M9.6 8.833 9.021 8.6a22.797 22.797 0 0 0-2.138-.774 18.44 18.44 0 0 0-1.1-.3h-.012a.246.246 0 0 0-.186.448l.01.006c.325.2.656.392.991.573q.281.15.564.291a.245.245 0 0 1 0 .439q-.285.141-.564.292c-.335.18-.667.369-.992.573l-.016.01a.246.246 0 0 0 .187.447h.018c.374-.088.741-.19 1.105-.3s.723-.234 1.079-.362c.179-.064.355-.134.532-.2l.526-.213.573-.232a.246.246 0 0 0 .002-.465zM14.405 8.833l.574-.235a22.797 22.797 0 0 1 2.138-.774 18.44 18.44 0 0 1 1.1-.3h.012a.246.246 0 0 1 .186.448l-.01.006c-.325.2-.656.392-.991.573q-.28.15-.564.291a.245.245 0 0 0 0 .439q.285.141.564.292c.335.18.667.369.992.573l.016.01a.246.246 0 0 1-.187.447h-.018c-.374-.088-.741-.19-1.105-.3s-.723-.234-1.079-.362c-.179-.064-.355-.134-.532-.2l-.526-.213-.573-.232a.246.246 0 0 1 .003-.463zM17.051 13.32c-.139-.122-.276-.247-.418-.366a38.03 38.03 0 0 0-.852-.708.216.216 0 0 0-.245-.019l-.034.019c-.319.185-.636.372-.951.564-.2.119-.394.241-.59.364a.218.218 0 0 1-.243-.009l-.134-.1c-.149-.109-.3-.214-.449-.322-.3-.214-.6-.422-.9-.632l-.106-.074a.217.217 0 0 0-.248 0l-.106.074c-.3.21-.606.417-.9.632-.15.107-.3.212-.449.321l-.134.1a.218.218 0 0 1-.243.008c-.2-.122-.391-.244-.589-.363-.157-.1-.316-.19-.474-.285s-.319-.186-.478-.279l-.033-.019a.214.214 0 0 0-.245.019c-.287.232-.572.467-.853.709-.141.119-.278.244-.418.366s-.275.249-.41.377c.168-.08.335-.161.5-.247s.33-.169.492-.258c.228-.121.453-.247.677-.374a.217.217 0 0 1 .242.02l.2.16c.145.113.289.228.436.339.291.225.587.446.882.665l.074.055a.215.215 0 0 0 .246.008l.1-.063.464-.3.461-.3c.19-.124.377-.25.565-.378a.219.219 0 0 1 .243 0c.187.127.374.254.564.377.154.1.306.2.462.3l.464.3.1.063a.215.215 0 0 0 .246-.008L14.03 14c.295-.219.59-.44.882-.665.214-.165.426-.332.638-.5a.215.215 0 0 1 .241-.019c.225.127.451.253.68.376.162.089.328.171.492.258s.331.167.5.247a14.588 14.588 0 0 0-.412-.377z" />
  <path class="c" d="M17.051 12.78c-.139.122-.276.247-.418.366-.28.241-.566.476-.852.708a.218.218 0 0 1-.245.019l-.034-.019a50.552 50.552 0 0 1-.951-.564c-.2-.119-.394-.241-.59-.364a.218.218 0 0 0-.243.009l-.134.1c-.149.109-.3.214-.449.321-.3.215-.6.423-.9.633l-.106.074a.217.217 0 0 1-.248 0l-.106-.074c-.3-.21-.606-.417-.9-.632-.15-.107-.3-.212-.449-.321l-.134-.1a.218.218 0 0 0-.243-.008c-.2.122-.391.244-.589.363-.157.1-.316.19-.474.285s-.319.186-.478.279l-.033.019a.214.214 0 0 1-.245-.019 35.584 35.584 0 0 1-.853-.709c-.141-.119-.278-.244-.418-.366s-.275-.249-.41-.377c.168.08.335.161.5.247s.33.169.492.258c.228.121.453.247.677.374a.217.217 0 0 0 .242-.02l.2-.16c.145-.113.289-.228.436-.339.291-.225.587-.446.882-.665l.074-.055a.217.217 0 0 1 .246-.009l.1.064.464.3.461.3c.19.124.377.25.565.377a.217.217 0 0 0 .243 0c.187-.127.374-.254.564-.377.154-.1.306-.2.462-.3l.464-.3.1-.062a.215.215 0 0 1 .246.008l.074.054a60.924 60.924 0 0 1 1.52 1.166.215.215 0 0 0 .241.019c.225-.127.451-.253.68-.376.162-.089.328-.171.492-.258s.331-.167.5-.247c-.147.129-.283.256-.423.378z" />
</svg>